<?xml version="1.0" encoding="iso-8859-1"?>
<!-- Generator: Adobe Illustrator 18.0.0, SVG Export Plug-In . SVG Version: 6.00 Build 0)  -->
<!DOCTYPE svg PUBLIC "-//W3C//DTD SVG 1.1//EN" "http://www.w3.org/Graphics/SVG/1.1/DTD/svg11.dtd">
<svg version="1.1" id="Capa_1" xmlns="http://www.w3.org/2000/svg" xmlns:xlink="http://www.w3.org/1999/xlink" x="0px" y="0px"
	 viewBox="0 0 297 297" style="enable-background:new 0 0 297 297;" xml:space="preserve">
<path d="M266.533,79.057c-4.179-3.115-18.638-13.597-34.247-21.607c3.649-14.69,5.584-27.331,5.99-30.114
	c0.442-3.036-0.575-6.103-2.744-8.273c-2.17-2.17-5.243-3.186-8.273-2.744c-4.247,0.62-31.448,4.799-53.86,13.203
	c-7.824-13.007-15.423-23.352-17.108-25.611C154.457,1.45,151.57,0,148.501,0c-3.068,0-5.956,1.449-7.79,3.909
	c-1.685,2.26-9.285,12.605-17.109,25.612c-22.411-8.404-49.613-12.584-53.86-13.203c-3.036-0.441-6.103,0.574-8.273,2.744
	c-2.169,2.17-3.186,5.237-2.744,8.273c0.406,2.783,2.341,15.424,5.99,30.114c-15.609,8.01-30.068,18.493-34.247,21.607
	c-2.46,1.834-3.909,4.722-3.909,7.79s1.45,5.957,3.909,7.79c3.628,2.704,15.009,10.963,28.158,18.337h-0.667
	c-5.366,0-9.717,4.351-9.717,9.717v55.245c0,5.366,4.351,9.717,9.717,9.717h4.3l11.919,100.773c0.579,4.891,4.724,8.575,9.649,8.575
	h129.345c4.925,0,9.07-3.685,9.649-8.575l11.919-100.773h4.3c5.366,0,9.717-4.351,9.717-9.717v-55.245
	c0-5.366-4.351-9.717-9.717-9.717h-0.667c13.15-7.374,24.53-15.633,28.158-18.337c2.46-1.833,3.909-4.722,3.909-7.79
	S268.993,80.891,266.533,79.057z M216.732,37.862c-4.066,20.572-11.279,46.32-19.487,54.527c-2.452,2.453-5.913,3.934-9.587,4.802
	c3.067-5.565,5.052-11.692,5.052-18.268c0-9.159-4.244-20.807-9.848-32.195C193.33,43.096,205.761,40.03,216.732,37.862z
	 M229.325,168.219H67.675v-35.812h161.649V168.219z M148.501,26.587c11.671,17.422,24.776,40.729,24.776,52.336
	c0,11.667-15.352,24.076-24.789,30.205c-9.435-6.101-24.765-18.468-24.765-30.205C123.723,67.313,136.829,44.008,148.501,26.587z
	 M114.138,46.728c-5.604,11.388-9.848,23.035-9.848,32.195c0,6.576,1.985,12.703,5.052,18.267c-3.674-0.868-7.134-2.349-9.586-4.801
	c-8.209-8.209-15.421-33.956-19.487-54.527C91.239,40.03,103.67,43.096,114.138,46.728z M70.275,76.584
	c3.594,10.522,8.069,20.427,13.488,27.043c-9.165-3.689-20.601-10.264-30.512-16.78C58.677,83.279,64.557,79.704,70.275,76.584z
	 M204.538,277.567H92.462l-10.635-89.915h133.345L204.538,277.567z M213.231,103.635c5.421-6.616,9.899-16.524,13.494-27.051
	c5.719,3.12,11.6,6.696,17.028,10.265C233.842,93.371,222.402,99.948,213.231,103.635z"/>
<g>
</g>
<g>
</g>
<g>
</g>
<g>
</g>
<g>
</g>
<g>
</g>
<g>
</g>
<g>
</g>
<g>
</g>
<g>
</g>
<g>
</g>
<g>
</g>
<g>
</g>
<g>
</g>
<g>
</g>
</svg>
